<svg xmlns="http://www.w3.org/2000/svg" viewBox="0 0 879.83 235.69"><defs><style>.cls-1{fill:#798794;}.cls-2{fill:none;stroke:#798794;stroke-linecap:round;stroke-linejoin:round;stroke-width:18px;}</style></defs><title>Asset 13</title><g id="Layer_2" data-name="Layer 2"><g id="Layer_1-2" data-name="Layer 1"><path class="cls-1" d="M308.75,92.56a10.68,10.68,0,0,1-14.76.52,13,13,0,0,0-8.93-3.61,13.23,13.23,0,0,0-13,13.39v21.29h16.31a10.39,10.39,0,1,1,0,20.77H272v43.6a10.56,10.56,0,0,1-21.11,0V102.86A34.13,34.13,0,0,1,308.23,77.8,10.69,10.69,0,0,1,308.75,92.56Z"/><path class="cls-1" d="M347,199.5a43.09,43.09,0,1,1,43.26-42.92A43.11,43.11,0,0,1,347,199.5Zm0-65.06a22,22,0,1,0,22,22A21.91,21.91,0,0,0,347,134.45Z"/><path class="cls-1" d="M441.83,199.33a42.78,42.78,0,0,1-29.87-12,43.72,43.72,0,0,1-13.22-30.21,42,42,0,0,1,12.19-30.55,43,43,0,0,1,30-13.22,42.37,42.37,0,0,1,30.56,12.19,10.11,10.11,0,0,1,.34,14.42,10.31,10.31,0,0,1-14.59.34,22.89,22.89,0,0,0-16-6.35,22.26,22.26,0,0,0-15.79,6.87,22.73,22.73,0,0,0-6.18,16,21.58,21.58,0,0,0,6.87,15.62A21.36,21.36,0,0,0,442,178.73a22.35,22.35,0,0,0,15.11-6,10.11,10.11,0,0,1,14.42.52,10.32,10.32,0,0,1-.52,14.59,42.74,42.74,0,0,1-28.5,11.5Z"/><path class="cls-1" d="M525.8,200.36c-22.32,0-40.68-19.4-40.68-43.09V124.49c0-5.67,4.29-10.3,9.61-10.3,5.49,0,10.81,4.63,10.81,10.3v32.79c0,12.36,10.3,22.32,20.26,22.32,11.67,0,20.43-10,20.43-22.32V125.86c0-5.84,6-10.3,10.64-10.3a10,10,0,0,1,9.78,10.3v31.41C566.66,181,548.29,200.36,525.8,200.36Z"/><path class="cls-1" d="M609.59,200.19c-11,0-22-4.46-27.64-9.79a10.27,10.27,0,0,1,13.9-15.11c3.09,2.92,14.59,6.87,21.11,2.57a5.69,5.69,0,0,0,2.75-4.81c0-2.4-2.06-4.12-3.78-4.81-1.54-.86-4.29-.86-7.38-.86A39.12,39.12,0,0,1,595,165.52c-8.93-2.92-16.14-12.19-16.82-21.12-.86-10.81,3.78-17.51,7.73-21.29,8.58-7.9,21.11-9.1,30.21-7.55,6.87,1.2,12,3.6,16.31,7.55a10.27,10.27,0,0,1,.69,14.42,10.47,10.47,0,0,1-8.75,3.26,10.67,10.67,0,0,1-4.46-1.54c-2.4-1.72-4.12-2.92-7.21-3.43-5.15-.86-14.76-.52-14.08,6.87a6.79,6.79,0,0,0,3.09,3.6,28,28,0,0,0,7,.52c4.46.17,10.13.17,15.79,2.75a26.22,26.22,0,0,1,15.62,23.52,26.61,26.61,0,0,1-11.84,22A33.54,33.54,0,0,1,609.59,200.19Z"/><path class="cls-1" d="M709.92,92.56a10.68,10.68,0,0,1-14.76.52,13,13,0,0,0-8.93-3.61,13.23,13.23,0,0,0-13,13.39v21.29h16.31a10.39,10.39,0,1,1,0,20.77H673.18v43.6a10.56,10.56,0,0,1-21.11,0V102.86A34.13,34.13,0,0,1,709.4,77.8,10.69,10.69,0,0,1,709.92,92.56Z"/><path class="cls-1" d="M748.2,199.5a43.09,43.09,0,1,1,43.26-42.92A43.11,43.11,0,0,1,748.2,199.5Zm0-65.06a22,22,0,1,0,22,22A21.91,21.91,0,0,0,748.2,134.45Z"/><path class="cls-1" d="M877,182.34a10.22,10.22,0,0,1-.34,14.25,9.85,9.85,0,0,1-7,2.75,10.16,10.16,0,0,1-7.21-3.09l-24-24.89L814.64,195.9a9.61,9.61,0,0,1-7.21,3.09,10.44,10.44,0,0,1-7-2.75,10.05,10.05,0,0,1-.17-14.25l24.2-25.06L800.05,131.7a10.14,10.14,0,0,1,14.59-14.08l23.69,24.72,24.2-25.06A10.08,10.08,0,0,1,877,131.36l-24.55,25.58Z"/><path class="cls-1" d="M157,94h-.25A9,9,0,0,1,148,84.79c.26-9.4-1.87-22.26-5.56-33.55a71.32,71.32,0,0,0-6.3-14.46,178.79,178.79,0,0,0-6.55,22.91l-.43,1.86a9,9,0,0,1-17.52-4.12l.42-1.82c3.83-16.47,8.29-33.15,16.93-40.23a9,9,0,0,1,9.79-1.06c18.89,9.62,27.76,51.3,27.22,71A9,9,0,0,1,157,94Z"/><path class="cls-1" d="M113.54,234.16a9,9,0,0,1-8.21-5.31c-.75-1.67-1.55-3.34-2.4-5.11-6-12.45-13.36-27.94-6.45-50.66,8.46-27.77,47.51-21.81,60.85-19.69l.39.06,3.13.53,1.39.24c16.55,2.94,23.65.77,28.42-1.73a3.09,3.09,0,0,0,1.23-1.61l-21.33-15.94a22.22,22.22,0,0,1-8.74-13.31c-4.1-18.81-20.08-37.5-41.72-48.75a92.44,92.44,0,0,0-14.5-6.07,9,9,0,0,1,2.51-17.64,9.11,9.11,0,0,1,2.73.42,110.27,110.27,0,0,1,17.57,7.32c26.25,13.65,45.8,37,51,60.9a4.32,4.32,0,0,0,1.72,2.55l.14.1,22,16.44a16.4,16.4,0,0,1,6.67,14.75A20.94,20.94,0,0,1,199,168.43c-10.44,5.48-22.74,6.57-39.88,3.53l-1.36-.23-2.72-.46-.24,0c-30.71-4.87-39.32,1.18-41.13,7.11-4.88,16-.08,26,5.47,37.64.85,1.79,1.74,3.63,2.57,5.49a9,9,0,0,1-8.2,12.7Z"/><path class="cls-1" d="M52.54,70.06a9,9,0,0,1-8.84-7.38c-2.3-12.53-.78-41.89,6.75-57.57A9,9,0,0,1,61.3.43C81.78,7,97.95,28.13,115.47,53a9,9,0,1,1-14.71,10.37c-12.4-17.59-24.6-34-37-41.92C60.71,34,60,51.56,61.4,59.43a9,9,0,0,1-8.86,10.63Z"/><path class="cls-2" d="M52.55,61.07"/><path class="cls-1" d="M15,235.69a9,9,0,0,1-9-8.31c-1.83-23.78,4.45-47.84,10.44-64.63A14,14,0,0,1,.08,147.41c1.27-11.88,6.17-28.2,21.14-44.19a14.17,14.17,0,0,1-10.71-6.83,14,14,0,0,1,.63-15.3c8.9-12.45,24-20.71,37.36-27.48A9,9,0,1,1,56.6,69.68c-6.47,3.27-17.29,8.73-25.1,15.66a44.39,44.39,0,0,1,11.6,3.28l.44.18a9.62,9.62,0,0,1,2.2,16.57l-.37.28c-15.57,11.84-22.61,24.4-25.62,34.73a46.73,46.73,0,0,1,9.31-3.47,10.12,10.12,0,0,1,11.75,14.14c-3.25,6.76-19.31,42.13-16.79,75a9,9,0,0,1-8.28,9.66ZM36.72,105.45l.05,0Z"/></g></g></svg>